<svg width="100" height="100" viewBox="0 0 100 100" fill="none" xmlns="http://www.w3.org/2000/svg">
<mask id="path-1-inside-1_67_141" fill="white">
<path d="M0 10C0 4.47716 4.47715 0 10 0H90C95.5228 0 100 4.47715 100 10V90C100 95.5228 95.5228 100 90 100H10C4.47716 100 0 95.5228 0 90V10Z"/>
</mask>
<path d="M0 10C0 4.47716 4.47715 0 10 0H90C95.5228 0 100 4.47715 100 10V90C100 95.5228 95.5228 100 90 100H10C4.47716 100 0 95.5228 0 90V10Z" fill="#CAAB7C"/>
<path d="M0 0H100H0ZM100 90C100 98.8366 92.8366 106 84 106H16C7.16344 106 0 98.8366 0 90C0 92.2091 4.47715 94 10 94H90C95.5228 94 100 92.2091 100 90ZM0 100V0V100ZM100 0V100V0Z" fill="black" fill-opacity="0.3" mask="url(#path-1-inside-1_67_141)"/>
<g filter="url(#filter0_d_67_141)">
<path d="M77.0789 44.7704C79.0789 45.9251 79.0789 48.8118 77.0789 49.9665L36.7368 73.258C34.7368 74.4127 32.2368 72.9694 32.2368 70.66L32.2368 24.0769C32.2368 21.7675 34.7368 20.3241 36.7368 21.4788L77.0789 44.7704Z" fill="#D9D9D9"/>
</g>
<defs>
<filter id="filter0_d_67_141" x="32.2368" y="21.0724" width="49.3421" height="57.592" filterUnits="userSpaceOnUse" color-interpolation-filters="sRGB">
<feFlood flood-opacity="0" result="BackgroundImageFix"/>
<feColorMatrix in="SourceAlpha" type="matrix" values="0 0 0 0 0 0 0 0 0 0 0 0 0 0 0 0 0 0 127 0" result="hardAlpha"/>
<feOffset dx="3" dy="5"/>
<feComposite in2="hardAlpha" operator="out"/>
<feColorMatrix type="matrix" values="0 0 0 0 0 0 0 0 0 0 0 0 0 0 0 0 0 0 0.25 0"/>
<feBlend mode="normal" in2="BackgroundImageFix" result="effect1_dropShadow_67_141"/>
<feBlend mode="normal" in="SourceGraphic" in2="effect1_dropShadow_67_141" result="shape"/>
</filter>
</defs>
</svg>
